<svg id="Layer_1" data-name="Layer 1" xmlns="http://www.w3.org/2000/svg" viewBox="0 0 236.6 57.08"><path d="M143.89,262.39l15.75-35H166l15.8,35H175l-13.5-31.55h2.6l-13.55,31.55Zm7.25-8.1,1.8-5.1h18.85l1.75,5.1Z" transform="translate(-143.89 -226.89)"/><path d="M191.64,262.39v-29.5H180v-5.5h29.7v5.5h-11.6v29.5Z" transform="translate(-143.89 -226.89)"/><path d="M214.64,262.39v-35H220l15.3,25.55h-2.8l15-25.55h5.35l.1,35h-6.25V237H248l-12.7,21.4h-2.95l-13-21.4h1.5v25.35Z" transform="translate(-143.89 -226.89)"/><path d="M278.79,262.89a20.55,20.55,0,0,1-7.52-1.35,18,18,0,0,1-6-3.8,17.24,17.24,0,0,1-3.95-5.73,18,18,0,0,1-1.4-7.12,18.17,18.17,0,0,1,1.4-7.18,17,17,0,0,1,3.95-5.7,18.35,18.35,0,0,1,6-3.77,20.56,20.56,0,0,1,7.55-1.35,20.82,20.82,0,0,1,7.5,1.32,18,18,0,0,1,6,3.75,17.15,17.15,0,0,1,3.92,5.73,18.31,18.31,0,0,1,1.4,7.2,18.09,18.09,0,0,1-1.4,7.17,17.28,17.28,0,0,1-9.9,9.5A20.82,20.82,0,0,1,278.79,262.89Zm0-5.7a12.92,12.92,0,0,0,4.88-.9,11.54,11.54,0,0,0,3.87-2.55,11.85,11.85,0,0,0,2.58-3.9,13,13,0,0,0,.92-5,13.21,13.21,0,0,0-.9-4.95,11.38,11.38,0,0,0-2.57-3.9,11.87,11.87,0,0,0-3.9-2.55,12.92,12.92,0,0,0-4.88-.9,13.2,13.2,0,0,0-4.92.9,11.31,11.31,0,0,0-3.93,2.57,12.87,12.87,0,0,0-2.6,13.73,12.26,12.26,0,0,0,2.6,3.92,11.2,11.2,0,0,0,3.93,2.58A13.2,13.2,0,0,0,278.79,257.19Z" transform="translate(-143.89 -226.89)"/><path d="M304.49,262.39v-35H311v29.5h18.3v5.5Z" transform="translate(-143.89 -226.89)"/><path d="M334.44,262.39v-35h6.5v35Z" transform="translate(-143.89 -226.89)"/><path d="M366.59,262.89a20.43,20.43,0,0,1-7.45-1.33,17.46,17.46,0,0,1-9.85-9.47,19.21,19.21,0,0,1,0-14.4,17.22,17.22,0,0,1,3.95-5.7,17.82,17.82,0,0,1,5.95-3.78,21.69,21.69,0,0,1,15.3.15,15.51,15.51,0,0,1,6,4.38l-4.2,3.95a13.26,13.26,0,0,0-4.3-3.08,12.56,12.56,0,0,0-5.05-1,13.6,13.6,0,0,0-5,.9,11.78,11.78,0,0,0-4,2.55,12,12,0,0,0-2.62,3.9,13.37,13.37,0,0,0,0,9.9,12,12,0,0,0,2.62,3.9,11.78,11.78,0,0,0,4,2.55,13.6,13.6,0,0,0,5,.9,12.4,12.4,0,0,0,5.05-1,12.82,12.82,0,0,0,4.3-3.12l4.2,4a15.76,15.76,0,0,1-6,4.4A20.12,20.12,0,0,1,366.59,262.89Z" transform="translate(-143.89 -226.89)"/><path d="M196.74,283.88l-5.48-16.1h1.25l5.19,15.38h-.62l5.36-15.38h1.13l5.31,15.38h-.6l5.25-15.38h1.15l-5.45,16.1H208L202.83,269h.3L198,283.88Z" transform="translate(-143.89 -226.89)"/><path d="M220,284a5.64,5.64,0,0,1-2.31-.43,3.27,3.27,0,0,1-1.49-1.2,3.14,3.14,0,0,1-.52-1.8,3.21,3.21,0,0,1,.43-1.66,3,3,0,0,1,1.41-1.22,6.11,6.11,0,0,1,2.64-.48h4.42v.9H220.2a3.83,3.83,0,0,0-2.61.69,2.38,2.38,0,0,0,.12,3.57,3.91,3.91,0,0,0,2.46.69,4.56,4.56,0,0,0,2.57-.69,4.08,4.08,0,0,0,1.55-2l.32.78A4.17,4.17,0,0,1,223,283.2,5.29,5.29,0,0,1,220,284Zm4.33-.09v-2.74l-.05-.41v-4.51a3.35,3.35,0,0,0-.91-2.55,3.64,3.64,0,0,0-2.65-.88,6.38,6.38,0,0,0-4.14,1.52l-.58-.83a6.56,6.56,0,0,1,2.16-1.25,7.89,7.89,0,0,1,2.65-.45,4.82,4.82,0,0,1,3.43,1.13,4.41,4.41,0,0,1,1.19,3.35v7.62Z" transform="translate(-143.89 -226.89)"/><path d="M228.2,272.86v-1h7.18v1ZM233.68,284a3.22,3.22,0,0,1-2.43-.87,3.34,3.34,0,0,1-.84-2.4V269.25h1.15v11.34a2.51,2.51,0,0,0,.57,1.77,2.18,2.18,0,0,0,1.66.62,2.64,2.64,0,0,0,1.86-.67l.49.81a2.76,2.76,0,0,1-1.12.64A4.41,4.41,0,0,1,233.68,284Z" transform="translate(-143.89 -226.89)"/><path d="M243.77,284a6.47,6.47,0,0,1-3.21-.78,5.72,5.72,0,0,1-2.18-2.16,6.22,6.22,0,0,1-.79-3.15,6.51,6.51,0,0,1,.74-3.17,5.6,5.6,0,0,1,2.06-2.15,6,6,0,0,1,5.88,0,5.39,5.39,0,0,1,2,2.13,6.56,6.56,0,0,1,.74,3.16.81.81,0,0,1,0,.15.91.91,0,0,0,0,.17h-10.6v-.9h10l-.46.44a5,5,0,0,0-.59-2.52,4.61,4.61,0,0,0-1.64-1.75,4.57,4.57,0,0,0-6.42,1.75,5.29,5.29,0,0,0-.6,2.54v.21a5.11,5.11,0,0,0,.66,2.61,4.64,4.64,0,0,0,1.8,1.77,5.38,5.38,0,0,0,2.63.63,5.52,5.52,0,0,0,2.15-.41,4.37,4.37,0,0,0,1.69-1.26l.66.75a4.75,4.75,0,0,1-2,1.46A6.62,6.62,0,0,1,243.77,284Z" transform="translate(-143.89 -226.89)"/><path d="M252.63,283.88v-12h1.1v3.29l-.11-.37a4.21,4.21,0,0,1,1.7-2.23,5.36,5.36,0,0,1,3-.78v1.13l-.14,0H258a4,4,0,0,0-3.13,1.26,5,5,0,0,0-1.12,3.48v6.26Z" transform="translate(-143.89 -226.89)"/><path d="M265.62,272.86v-1h7.18v1Zm2.21,11V270a3.36,3.36,0,0,1,.86-2.4,3.25,3.25,0,0,1,2.48-.91,4.53,4.53,0,0,1,1.31.2,2.43,2.43,0,0,1,1,.58l-.46.88a2.11,2.11,0,0,0-.82-.51,3.24,3.24,0,0,0-1-.16,2.21,2.21,0,0,0-1.68.61,2.54,2.54,0,0,0-.57,1.8v2l0,.55v11.18Z" transform="translate(-143.89 -226.89)"/><path d="M279.63,284a6,6,0,0,1-3.07-.78,5.76,5.76,0,0,1-2.14-2.16,6.71,6.71,0,0,1,0-6.32,5.81,5.81,0,0,1,2.14-2.15,6.45,6.45,0,0,1,6.15,0,5.66,5.66,0,0,1,2.14,2.15,6.79,6.79,0,0,1,0,6.32,5.62,5.62,0,0,1-2.14,2.16A6.05,6.05,0,0,1,279.63,284Zm0-1a4.89,4.89,0,0,0,2.48-.63,4.43,4.43,0,0,0,1.73-1.78,6,6,0,0,0,0-5.3,4.46,4.46,0,0,0-1.73-1.77,4.9,4.9,0,0,0-2.48-.64,4.83,4.83,0,0,0-2.47.64,4.53,4.53,0,0,0-1.73,1.77,5.89,5.89,0,0,0,0,5.3,4.49,4.49,0,0,0,1.73,1.78A4.83,4.83,0,0,0,279.63,282.93Z" transform="translate(-143.89 -226.89)"/><path d="M289.2,283.88v-12h1.1v3.29l-.11-.37a4.21,4.21,0,0,1,1.7-2.23,5.34,5.34,0,0,1,3-.78v1.13l-.14,0h-.14a4,4,0,0,0-3.13,1.26,5,5,0,0,0-1.12,3.48v6.26Z" transform="translate(-143.89 -226.89)"/><path d="M301.85,283.88l7.4-16.1h1.18l7.4,16.1h-1.26l-7-15.37h.51l-7,15.37Zm2.71-4.53.39-1h9.64l.39,1Z" transform="translate(-143.89 -226.89)"/><path d="M320.38,283.88V266.81h1.15v17.07Z" transform="translate(-143.89 -226.89)"/><path d="M326.39,283.88V266.81h1.15v17.07Z" transform="translate(-143.89 -226.89)"/></svg>