<svg id="Layer_1" data-name="Layer 1" xmlns="http://www.w3.org/2000/svg" viewBox="0 0 380.37 114.59"><defs><style>.cls-1{fill:#fefefe;}.cls-2{fill:#b40000;}</style></defs><path class="cls-1" d="M-95.17,124.55H285.17c-.13.18.31.62-.3.6H-92.47C-93.35,125.11-94.5,125.8-95.17,124.55Z" transform="translate(95.17 -10.72)"/><path class="cls-2" d="M102.25,47.74H95.06c-2.14,0-3.57-1.09-3.56-3.18s1.43-3.19,3.57-3.2c2.9,0,5.8-.12,8.69,0,2.43.13,2.48-.72,1.51-2.55a12.21,12.21,0,0,0-14.66-5.59,12,12,0,0,0,5.08,23.26,12.56,12.56,0,0,0,6.36-2.4c1.7-1.21,3.45-1.34,4.75.43,1.43,1.94.5,3.49-1.23,4.82a18.71,18.71,0,0,1-21.11.52,18.32,18.32,0,0,1,9.21-33.61C104.19,26,113,33.85,113,43.63c0,2.88-1,4-3.87,4.07C106.85,47.79,104.55,47.74,102.25,47.74Z" transform="translate(95.17 -10.72)"/><path class="cls-2" d="M12.75,40.82c0-6-.22-12,.06-17.92.3-6.52,5.8-11.69,12.27-12.16,2.29-.16,4.1.43,4.39,2.92S28.14,17,26,17.31c-4.83.81-7.14,3.83-6.77,8.52.1,1.29.54,1.76,1.8,1.72a34.79,34.79,0,0,1,4.79.09c1.75.19,3.09,1.08,3,3.06s-1.38,2.75-3.22,2.81H25c-5.76.21-5.76.21-5.76,5.86V58.19c0,2.33-.45,4.26-3.23,4.47-2.3.17-3.39-1.32-3.41-4.52V40.81Z" transform="translate(95.17 -10.72)"/><path class="cls-2" d="M42.87,50.81c.1-2.9-.22-6.28.45-9.65,1.69-8.45,9.86-15.38,18.5-15.6,2.18-.06,4.19.19,4.3,2.91.11,2.41-1.55,3.09-3.7,3.35-8.39,1-13,6.1-13.13,14.59-.08,4.08,0,8.17,0,12.25,0,2.22-.79,3.8-3.16,3.84S42.87,61,42.88,58.75Z" transform="translate(95.17 -10.72)"/><path class="cls-2" d="M134.29,44.5V58.23c0,2.3-.52,4.27-3.37,4.3s-3.46-2-3.47-4.24q-.06-13.71,0-27.46c0-2.29.66-4.34,3.41-4.33,2.91,0,3.47,2.13,3.45,4.57C134.27,35.59,134.29,40,134.29,44.5Z" transform="translate(95.17 -10.72)"/><path class="cls-2" d="M131,11.8a4.44,4.44,0,0,1,4.16,4.57,4.29,4.29,0,0,1-4.5,4.07h-.11a4.13,4.13,0,0,1-4-4.27v-.09a4.29,4.29,0,0,1,4.31-4.27Z" transform="translate(95.17 -10.72)"/><path class="cls-2" d="M188.33,44.59c-.35-8.31-4.45-14.11-12.15-17.2a18.08,18.08,0,0,0-19.77,4.68,18.36,18.36,0,0,0-3.46,20c4.4,10.09,16.69,13.88,26.6,8.24.82-.47,1.88-2.12,2.55.28a2.93,2.93,0,0,0,3.45,2.28l.25-.07c1.91-.37,2.49-1.85,2.53-3.57V51.76C188.33,49.29,188.43,46.92,188.33,44.59Zm-18.58,12a12.06,12.06,0,1,1,.15,0Z" transform="translate(95.17 -10.72)"/></svg>